<svg viewBox="0 0 24 24" role="img" aria-hidden="false" aria-label="Dates" focusable="false" style="fill: currentcolor;">
    <path d="m20 19.3843286v-9.61307502-2.09826243-1.49051329c0-.34065641-.2846034-.61680314-.6345257-.61680314h-1.7752721c-.1796268 0-.3254277-.14146861-.3254277-.31575794v-1.2686905c0-.54210771-.4525661-.98122628-1.0112753-.98122628s-1.0124417.43911857-1.0124417.98122628v1.2686905c0 .17428933-.1458009.31575794-.3254276.31575794h-4.94206847c-.17962675 0-.32542768-.14146861-.32542768-.31575794v-1.2686905c0-.54210771-.4525661-.98122628-1.01127527-.98122628-.55870918 0-1.01244168.43911857-1.01244168.98122628v1.2686905c0 .17428933-.14580094.31575794-.32542769.31575794h-1.66329704c-.35108865 0-.63569207.27614673-.63569207.61680314v1.49051329 2.16616736 9.54517009c0 .3395247.28460342.6156714.63569207.6156714h13.72978223c.3499223 0 .6345257-.2761467.6345257-.6156714zm-2.6979005-2.7908927c0 .0135809-.0034992.0192397-.0034992.0350842 0 .734505-.0034992.752613-.6065319.7537447h-8.38646964c-.60303266-.0011317-.60769829-.0192397-.60769829-.7537447v-4.628853c0-.7492177 0-.7537447.6415241-.7537447h.38608087.74416797 6.06065319.744168.3825816c.6415241 0 .6415241.004527.6415241.7537447 0 .0158445.0034992.0215033.0034992.0350842z"></path>
</svg>