<svg viewBox="0 0 24 24" role="img" aria-hidden="false" aria-label="Guests" focusable="false" style="fill: currentcolor;">
    <path d="m11.4266625 14.15625v5.3125c0 .29325-.238.53125-.53125.53125h-6.215625c-.26775 0-.4919375-.19975-.5259375-.465375-.31025-2.4766875-.133875-6.0084375.36975-7.006125.329375-.65025 1.090125-1.383375 2.5085625-2.4001875.1859375-.1328125.1816875-.129625.248625-.187.0711875-.0605625.153-.13175.1731875-.1880625.019125-.053125-.0138125-.133875-.0541875-.1944375-.0286875-.0435625-.0626875-.085-.167875-.20825-.733125-.8638125-1.11775-1.9858125-1.11775-3.4286875 0-1.6819375 1.277125-2.921875 2.921875-2.921875 1.6065 0 2.921875 1.2909375 2.921875 2.921875 0 1.4566875-.3835625 2.5956875-1.1613125 3.4425-.1646875.1795625-.2220625.291125-.2050625.3538125.0159375.0648125.0393125.0924375.1561875.167875.0648125.0425.10625.0648125.24225.133875.112625.0584375.2709375.1413125.482375.2560625.0945625.0499375.4536875.2263125.847875.465375.14025.085.23375.231625.2518125.393125.019125.163625-.03825.3261875-.155125.439875-.588625.5790625-.99025 1.3759375-.99025 2.581875zm9.5542125.1120938c.0053125.8744375.0085 1.54275.0085 2.1505v.4473125c0 .439875-.002125.867-.00425 1.340875-.0010625.2029375-.0010625.2029375-.002125.401625-.0010625.32725-.002125.5833125-.002125.860625 0 .29325-.238.53125-.53125.53125h-7.429c-.2943125 0-.53125-.238-.53125-.53125v-5.3125c0-1.0274375.3325625-1.6405 1.060375-2.148375l.8585-.4834375c.08925-.0425.08925-.0425.1753125-.082875.1328125-.0626875.2156875-.1030625.2985625-.1445.1455625-.074375.187-.1179375.189125-.1243125-.0053125-.142375-.017-.16575-.1328125-.2879375-.0201875-.0201875-.0201875-.0201875-.0414375-.0435625-.860625-.92862505-1.21125-2.08568755-1.21125-3.49987505 0-1.4184375 1.107125-2.9611875 2.9590625-2.9611875 1.859375 0 2.9505625 1.5161875 2.9505625 2.9611875 0 1.36425-.3665625 2.57975-1.217625 3.49881255-.02125.0223125-.02125.0223125-.03825.040375-.027625.027625-.027625.027625-.0478125.0499375-.074375.0775625-.0818125.0945625-.08075.2295-.0010625.051.02125.078625.136.1370625.0733125.0371875.155125.0754375.25925.12325-.0329375-.0138125.374.1689375.4919375.2241875 1.241.5865 1.87425 1.2973125 1.88275 2.6233125z"></path>
</svg>