<svg viewBox="0 0 32 32"
    xmlns="http://www.w3.org/2000/svg" aria-hidden="true" role="presentation" focusable="false" style="fill: none; stroke: currentcolor; stroke-width: 2.66667; overflow: visible;">
    <g fill="none">
        <path d="m6.83205 20.5547.16795-.2519v-.3028-7c0-4.97056 4.0294-9 9-9s9 4.02944 9 9v7 .3028l.1679.2519 2.6778 4.0166c.1006.1509.1543.3283.1543.5097 0 .5076-.4114.919-.919.919h-22.16202c-.50754 0-.91898-.4114-.91898-.919 0-.1814.0537-.3588.15434-.5097zm6.17885 5.8131c-.0043.0661-.0109.765-.0109.8322 0 1.6569 1.3431 3 3 3s3-1.3431 3-3c0-.0672-.0066-.7-.0109-.7661"></path>
        <path d="m16 1v3"></path>
    </g>
</svg>