<svg viewBox="0 0 32 32"
    xmlns="http://www.w3.org/2000/svg" aria-hidden="true" role="presentation" focusable="false" style="fill: currentcolor;">
    <path d="M30 1a1 1 0 0 1 .993.883L31 2v28a1 1 0 0 1-.883.993L30 31H2a1 1 0 0 1-.993-.883L1 30V2a1 1 0 0 1 .883-.993L2 1zM3 3v26h12V3zm7 9v6.585l1.793-1.792 1.414 1.414-3.5 3.5a1 1 0 0 1-1.32.083l-.094-.083-3.5-3.5 1.414-1.414L8 18.585V12zm12.387-1.497a1 1 0 0 1 1.226 0l.094.083 3.5 3.5-1.414 1.414L24 13.707V20h-2v-6.293L20.207 15.5l-1.414-1.414 3.5-3.5zM17 29h12V3H17z"></path>
</svg>