<svg viewBox="0 0 32 32"
    xmlns="http://www.w3.org/2000/svg" aria-hidden="true" role="presentation" focusable="false" style="fill: currentcolor;">
    <path d="M26 4a2 2 0 0 1 1.995 1.85L28 6v3h1a3 3 0 0 1 2.995 2.824L32 12v18h-2v-2H2v2H0V12a3 3 0 0 1 2.824-2.995L3 9h1V6a2 2 0 0 1 1.697-1.977l.154-.018L6 4zm4 18H2v4h28zm-2.868-6H4.868L2.2 20h27.599zM29 11h-1v2.697l2 3V12a1 1 0 0 0-.883-.993zM4 11H3a1 1 0 0 0-.993.883L2 12v4.696l2-3zm22-5H6v8h20zm-4 3a1 1 0 1 1 0 2 1 1 0 0 1 0-2zm-4 0a1 1 0 1 1 0 2 1 1 0 0 1 0-2zm-4 0a1 1 0 1 1 0 2 1 1 0 0 1 0-2zm-4 0a1 1 0 1 1 0 2 1 1 0 0 1 0-2z"></path>
</svg>