<?xml version="1.0" encoding="UTF-8"?>
<!DOCTYPE svg PUBLIC "-//W3C//DTD SVG 1.1//EN" "http://www.w3.org/Graphics/SVG/1.1/DTD/svg11.dtd">
<svg xmlns="http://www.w3.org/2000/svg" version="1.1" width="512px" height="512px" style="shape-rendering:geometricPrecision; text-rendering:geometricPrecision; image-rendering:optimizeQuality; fill-rule:evenodd; clip-rule:evenodd; overflow: visible;"
    xmlns:xlink="http://www.w3.org/1999/xlink">
    <g>
        <path style="opacity:0.949" fill="#fff" d="M 113.5,-0.5 C 125.167,-0.5 136.833,-0.5 148.5,-0.5C 177.897,5.38399 203.897,18.2173 226.5,38C 237.637,48.1366 248.471,58.6366 259,69.5C 274.009,52.8151 290.509,37.9818 308.5,25C 327.091,12.088 347.424,3.58802 369.5,-0.5C 381.167,-0.5 392.833,-0.5 404.5,-0.5C 444.352,7.52525 472.519,30.1919 489,67.5C 497.343,90.4195 498.677,113.753 493,137.5C 488.45,151.152 483.116,164.485 477,177.5C 433.145,272.544 387.145,366.544 339,459.5C 325.443,486.232 304.276,503.566 275.5,511.5C 263.833,511.5 252.167,511.5 240.5,511.5C 214.636,505.156 194.803,490.489 181,467.5C 132.329,375.491 86.3288,282.158 43,187.5C 35.22,171.274 28.5533,154.607 23,137.5C 14.6097,89.9924 28.7763,50.8257 65.5,20C 80.0544,9.55017 96.0544,2.71684 113.5,-0.5 Z M 123.5,33.5 C 141.626,33.1148 158.626,37.2814 174.5,46C 196.333,59.1492 215.833,75.3159 233,94.5C 233.52,96.2889 233.187,97.9556 232,99.5C 205.682,130.454 186.349,165.454 174,204.5C 165.51,233.503 168.51,261.17 183,287.5C 207.71,320.076 240.21,331.909 280.5,323C 327.417,307.042 348.584,274.208 344,224.5C 338.645,194.765 327.978,167.099 312,141.5C 302.026,125.717 291.192,110.55 279.5,96C 299.862,71.2913 324.529,52.2913 353.5,39C 388.752,26.7108 418.919,34.2108 444,61.5C 461.242,86.7802 464.242,113.78 453,142.5C 408.648,242.205 361.315,340.539 311,437.5C 305.668,448.663 298.501,458.496 289.5,467C 261.651,484.945 236.485,481.778 214,457.5C 212.248,454.328 210.248,451.328 208,448.5C 155.627,347.756 105.961,245.756 59,142.5C 50.7076,118.572 52.0409,95.2382 63,72.5C 76.7799,49.5304 96.9466,36.5304 123.5,33.5 Z M 256.5,124.5 C 278.565,149.256 295.065,177.589 306,209.5C 310.861,224.678 311.527,240.011 308,255.5C 298.991,278.988 281.824,290.988 256.5,291.5C 223.247,288.913 205.914,270.913 204.5,237.5C 205.354,221.105 209.187,205.438 216,190.5C 227.253,166.968 240.753,144.968 256.5,124.5 Z"/>
    </g>
</svg>
