<svg viewBox="0 0 32 32"
    xmlns="http://www.w3.org/2000/svg" aria-hidden="true" role="presentation" focusable="false" style="fill: currentcolor;">
    <path d="m17.9772237 1.90551573.1439807.13496509 13.2525 13.25240998-1.4142088 1.4142184-.9603513-.9603098.0008557 12.5832006c0 1.0543618-.8158778 1.9181651-1.8507377 1.9945143l-.1492623.0054857h-22c-1.0543618 0-1.91816512-.8158778-1.99451426-1.8507377l-.00548574-.1492623-.00085571-12.5822006-.95878858.9593098-1.41421142-1.414217 13.25247161-13.25243161c1.1247615-1.1246896 2.9202989-1.16967718 4.0986078-.13494486zm-2.5902053 1.46599297-.0942127.08318915-10.29366141 10.29310155.00085571 14.5822006h5.9991443l.0008557-9.9966c0-1.0543764.8158639-1.9181664 1.8507358-1.9945144l.1492642-.0054856h6c1.0543764 0 1.9181664.8158639 1.9945144 1.8507358l.0054856.1492642-.0008557 9.9966h6.0008557l-.0008557-14.5832006-10.2921737-10.29212525c-.3604413-.36046438-.9276436-.38819241-1.3199522-.08316545zm3.6129816 14.9618913h-6l-.0008557 9.9963994h6z"></path>
</svg>