<svg viewBox="0 0 32 32"
    xmlns="http://www.w3.org/2000/svg" aria-hidden="true" role="presentation" focusable="false" style="fill: currentcolor;">
    <path d="M26 4a2 2 0 0 1 1.995 1.85L28 6v2h1a3 3 0 0 1 2.995 2.824L32 11v19H0V11a3 3 0 0 1 2.824-2.995L3 8h1V6a2 2 0 0 1 1.697-1.977l.154-.018L6 4zm4 18H2v6h28zm-2.868-6H4.868L2.2 20h27.599zM29 10h-1v3.697l2 3V11a1 1 0 0 0-.883-.993zM4 10H3a1 1 0 0 0-.993.883L2 11v5.696l2-3zm22-4H6v8h4v-4a2 2 0 0 1 1.85-1.995L12 8h8a2 2 0 0 1 1.995 1.85L22 10v4h4zm-6 4h-8v4h8z"></path>
</svg>